<?xml version="1.0" standalone="no"?><!DOCTYPE svg PUBLIC "-//W3C//DTD SVG 1.1//EN" "http://www.w3.org/Graphics/SVG/1.1/DTD/svg11.dtd"><svg t="1658653434782" class="icon" viewBox="0 0 1024 1024" version="1.1" xmlns="http://www.w3.org/2000/svg" p-id="7731" xmlns:xlink="http://www.w3.org/1999/xlink" width="32" height="32"><defs><style type="text/css">@font-face { font-family: feedback-iconfont; src: url("//at.alicdn.com/t/font_1031158_u69w8yhxdu.woff2?t=1630033759944") format("woff2"), url("//at.alicdn.com/t/font_1031158_u69w8yhxdu.woff?t=1630033759944") format("woff"), url("//at.alicdn.com/t/font_1031158_u69w8yhxdu.ttf?t=1630033759944") format("truetype"); }
</style></defs><path d="M922 698.9c-20-40.6-54.7-71-97.6-85.6-42.9-14.5-88.9-11.5-129.6 8.5-40.6 20-71.1 54.7-85.6 97.6-0.7 2-1.3 4-1.9 6L283.9 69.2c-5.4-10.9-18.6-15.4-29.5-10-10.9 5.4-15.4 18.6-10 29.5l226.3 459.2c-0.5 0.7-1 1.5-1.4 2.3l-92.2 174.6c-0.5-2-1.1-3.9-1.7-5.9-13.4-43.3-42.8-78.8-82.9-100-82.8-43.7-185.6-11.9-229.3 70.8-43.7 82.8-11.9 185.6 70.7 229.3 25.2 13.3 52.3 19.6 79 19.6 61 0 120-32.9 150.4-90.4 3.4-6.5 6.4-13.1 8.9-19.8l122.4-231.9 115.2 233.9c2.2 6.3 4.8 12.5 7.9 18.6 20 40.6 54.7 71 97.6 85.6 17.9 6.1 36.3 9.1 54.7 9.1 25.7 0 51.2-5.9 74.9-17.6 40.6-20 71.1-54.7 85.6-97.6s11.5-88.9-8.5-129.6zM154.5 880.1c-61.2-32.3-84.8-108.5-52.4-169.8 32.4-61.3 108.5-84.8 169.7-52.4 29.7 15.6 51.5 41.9 61.4 74 8.1 26 7.5 53.2-1.3 78.4l-11.4 21.6c-1 1.9-1.7 3.8-2.1 5.8-35 53.7-106.1 73-163.9 42.4z m734.3-65.7c-10.8 31.8-33.3 57.5-63.4 72.3-58.7 28.9-129.2 7.7-162.7-47-0.4-2-1-3.9-1.9-5.8L650 812c-8.2-25.4-7.9-52.7 0.8-78.5 10.8-31.8 33.3-57.5 63.4-72.3 17.9-8.7 36.8-12.9 55.4-12.9 46.4 0 91.1 25.8 112.9 70.1 14.9 30.1 17.1 64.2 6.3 96z" p-id="7732" fill="#707070"></path><path d="M542.4 458.8c3.3 1.8 6.8 2.6 10.3 2.6 7.9 0 15.6-4.3 19.5-11.7L757.6 98.5c5.7-10.7 1.5-24-9.2-29.7s-24-1.5-29.7 9.2L533.2 429.1c-5.7 10.7-1.5 24 9.2 29.7z" p-id="7733" fill="#707070"></path></svg>