<?xml version="1.0" standalone="no"?><!DOCTYPE svg PUBLIC "-//W3C//DTD SVG 1.1//EN" "http://www.w3.org/Graphics/SVG/1.1/DTD/svg11.dtd"><svg t="1658653780375" class="icon" viewBox="0 0 1024 1024" version="1.1" xmlns="http://www.w3.org/2000/svg" p-id="9767" xmlns:xlink="http://www.w3.org/1999/xlink" width="32" height="32"><defs><style type="text/css">@font-face { font-family: feedback-iconfont; src: url("//at.alicdn.com/t/font_1031158_u69w8yhxdu.woff2?t=1630033759944") format("woff2"), url("//at.alicdn.com/t/font_1031158_u69w8yhxdu.woff?t=1630033759944") format("woff"), url("//at.alicdn.com/t/font_1031158_u69w8yhxdu.ttf?t=1630033759944") format("truetype"); }
</style></defs><path d="M278.325983 487.608473" p-id="9768" fill="#707070"></path><path d="M191.401238 612.698446c-64.608483 0-117.17163-52.563146-117.17163-117.17163s52.563146-117.17163 117.17163-117.17163 117.17163 52.563146 117.17163 117.17163S256.009721 612.698446 191.401238 612.698446zM191.401238 419.287435c-42.039465 0-76.239382 34.20094-76.239382 76.239382s34.20094 76.239382 76.239382 76.239382 76.239382-34.20094 76.239382-76.239382S233.43968 419.287435 191.401238 419.287435z" p-id="9769" fill="#707070"></path><path d="M527.134699 612.698446c-64.608483 0-117.17163-52.563146-117.17163-117.17163s52.563146-117.17163 117.17163-117.17163c64.609507 0 117.172653 52.563146 117.172653 117.17163C644.307352 560.1353 591.744205 612.698446 527.134699 612.698446zM527.134699 419.287435c-42.038442 0-76.239382 34.20094-76.239382 76.239382s34.20094 76.239382 76.239382 76.239382c42.039465 0 76.240405-34.20094 76.240405-76.239382C603.375104 453.488375 569.174164 419.287435 527.134699 419.287435z" p-id="9770" fill="#707070"></path><path d="M862.869183 612.698446c-64.609507 0-117.172653-52.563146-117.172653-117.17163s52.563146-117.17163 117.172653-117.17163c64.608483 0 117.17163 52.563146 117.17163 117.17163 0 11.230786-1.591241 22.346961-4.727675 33.039487-3.182482 10.847046-14.557554 17.055444-25.400506 13.877055-10.846022-3.182482-17.058514-14.555507-13.877055-25.400506 2.039449-6.948249 3.072989-14.187117 3.072989-21.515013 0-42.039465-34.20094-76.239382-76.239382-76.239382-42.039465 0-76.240405 34.20094-76.240405 76.239382s34.20094 76.239382 76.240405 76.239382c11.721973 0 22.957875-2.582825 33.393551-7.676843 10.157337-4.959965 22.410406-0.744967 27.369348 9.413394s0.743944 22.411429-9.413394 27.369348C898.141524 608.720855 880.866069 612.698446 862.869183 612.698446z" p-id="9771" fill="#707070"></path></svg>