<?xml version="1.0" standalone="no"?><!DOCTYPE svg PUBLIC "-//W3C//DTD SVG 1.1//EN" "http://www.w3.org/Graphics/SVG/1.1/DTD/svg11.dtd"><svg t="1658653039708" class="icon" viewBox="0 0 1024 1024" version="1.1" xmlns="http://www.w3.org/2000/svg" p-id="4199" xmlns:xlink="http://www.w3.org/1999/xlink" width="32" height="32"><defs><style type="text/css">@font-face { font-family: feedback-iconfont; src: url("//at.alicdn.com/t/font_1031158_u69w8yhxdu.woff2?t=1630033759944") format("woff2"), url("//at.alicdn.com/t/font_1031158_u69w8yhxdu.woff?t=1630033759944") format("woff"), url("//at.alicdn.com/t/font_1031158_u69w8yhxdu.ttf?t=1630033759944") format("truetype"); }
</style></defs><path d="M895.473765 127.981836 127.937834 127.981836c-35.322483 0-63.956637 28.634154-63.956637 63.956637l0 639.614469c0 35.322483 28.634154 63.956637 63.956637 63.956637l767.535931 0c35.322483 0 63.956637-28.634154 63.956637-63.956637L959.430402 191.938474C959.430402 156.61599 930.796248 127.981836 895.473765 127.981836zM159.66442 191.942567l704.08276 0c17.520025 0 31.722492 14.202467 31.722492 31.722492l0 390.218376L684.703387 393.113309c-6.221702-6.221702-14.383592-9.31618-22.538319-9.28855-8.153704-0.027629-16.316617 3.067872-22.538319 9.28855L409.426857 632.757295l-103.836927-51.628868c-5.464455-3.684926-11.663644-5.438872-17.792225-5.421476-8.138354-0.01535-16.281825 3.080152-22.491247 9.289574L127.941927 722.361055 127.941927 223.665059C127.941927 206.145034 142.144394 191.942567 159.66442 191.942567zM895.469672 799.826358c0 17.520025-14.202467 31.722492-31.722492 31.722492L159.66442 831.54885c-13.644765 0-25.27464-8.616238-29.753651-20.702508l164.476005-164.476005 102.55984 50.993394c5.669116 4.225231 12.426007 6.310729 19.172665 6.257517 9.833973 0.068562 19.518542-4.426823 25.742291-12.844539L664.9853 458.208886l230.484372 236.126882L895.469672 799.826358z" p-id="4200" fill="#707070"></path><path d="M287.843754 447.784466c52.986795 0 95.941096-42.954301 95.941096-95.941096s-42.954301-95.941096-95.941096-95.941096c-52.986795 0-95.941096 42.954301-95.941096 95.941096S234.856959 447.784466 287.843754 447.784466zM287.843754 319.863005c17.662265 0 31.980365 14.3181 31.980365 31.980365s-14.3181 31.980365-31.980365 31.980365c-17.662265 0-31.980365-14.3181-31.980365-31.980365S270.181489 319.863005 287.843754 319.863005z" p-id="4201" fill="#707070"></path></svg>