<?xml version="1.0" standalone="no"?><!DOCTYPE svg PUBLIC "-//W3C//DTD SVG 1.1//EN" "http://www.w3.org/Graphics/SVG/1.1/DTD/svg11.dtd"><svg t="1658653926950" class="icon" viewBox="0 0 1024 1024" version="1.1" xmlns="http://www.w3.org/2000/svg" p-id="10731" xmlns:xlink="http://www.w3.org/1999/xlink" width="32" height="32"><defs><style type="text/css">@font-face { font-family: feedback-iconfont; src: url("//at.alicdn.com/t/font_1031158_u69w8yhxdu.woff2?t=1630033759944") format("woff2"), url("//at.alicdn.com/t/font_1031158_u69w8yhxdu.woff?t=1630033759944") format("woff"), url("//at.alicdn.com/t/font_1031158_u69w8yhxdu.ttf?t=1630033759944") format("truetype"); }
</style></defs><path d="M512 64C264.96 64 64 264.96 64 512s200.96 448 448 448 448-200.96 448-448S759.04 64 512 64zM512 895.712c-211.584 0-383.712-172.16-383.712-383.712C128.288 300.416 300.416 128.288 512 128.288c211.552 0 383.712 172.128 383.712 383.712C895.712 723.552 723.552 895.712 512 895.712z" p-id="10732" fill="#707070"></path><path d="M671.968 512 512 512 512 288.064c0-17.76-14.24-32.128-32-32.128s-32 14.4-32 32.128L448 544c0 17.76 14.272 32 32 32l191.968 0c17.76 0 32.128-14.24 32.128-32S689.728 512 671.968 512z" p-id="10733" fill="#707070"></path></svg>